<svg xmlns="http://www.w3.org/2000/svg" fill="#111" viewBox="0 0 220 220">
  <path
    d="M219 110.01a109 109 0 0 1-109 109 109 109 0 0 1-109-109 109 109 0 0 1 109-109 109 109 0 0 1 109 109" />
  <path fill="#0ff"
    d="M209.06 110A99.06 99.06 0 0 1 110 209.06 99.06 99.06 0 0 1 10.94 110 99.06 99.06 0 0 1 110 10.94 99.06 99.06 0 0 1 209.06 110" />
  <path
    d="M102.14 76.78q.11-23.07.02-47.72c-.04-10.67 15.16-10.34 15.14-.63q-.03 25.66-.02 47.91 0 .93.67.28 5.15-5.08 10.96-11.02c3.37-3.43 7.81-4.37 11.58-.97 3.24 2.92 3.04 8.17.09 11.14q-12.13 12.18-24.91 24.85c-4.5 4.47-9.08 3.02-12.97-.94Q90.11 86.9 78.89 75.78c-7.19-7.13 3.45-18.23 10.81-10.94q6.01 5.94 12.11 12.07a.19.19 0 0 0 .33-.13M85.02 133.83q.25-.91-.57-.44-21.72 12.52-40.84 23.6c-9.3 5.39-17.1-7.82-7.51-13.36q21.02-12.16 40.69-23.46.85-.49-.1-.74-8.23-2.19-16.08-4.32c-8.15-2.21-7.12-14.54 1.43-14.98q2.05-.1 4.03.43 17.07 4.62 32.27 8.69c6.69 1.79 7.52 6.6 5.92 12.42q-4.7 17.08-8.75 32.34c-2.05 7.76-13.56 7.23-14.97-.83q-.31-1.75.65-5.29 1.85-6.81 3.83-14.06M135 133.58q-.43.18-.32.64 1.52 6.32 3.64 13.51 1.07 3.65.53 6.08c-1.71 7.71-12.74 7.72-14.84.01q-4.86-17.9-9.14-34.18c-1.3-4.94 1.33-9.03 6.06-10.29q17.12-4.55 33.81-9.07c9.8-2.66 14.25 12.02 4.57 14.72q-8.35 2.33-16.43 4.37-1.07.26-.12.82 20.3 11.68 41.41 23.89c4.45 2.57 4.79 8.98 1.08 12.23-3.52 3.08-7.13 2.1-10.89-.11q-19.09-11.21-39.1-22.61-.12-.07-.26-.01" />
</svg>